<?xml version="1.0" standalone="no"?><svg xmlns="http://www.w3.org/2000/svg" viewBox="0 0 1440 320"><path fill="#0099ff" fill-opacity="1" d="M0,224L11.4,229.3C22.9,235,46,245,69,245.3C91.4,245,114,235,137,197.3C160,160,183,96,206,85.3C228.6,75,251,117,274,144C297.1,171,320,181,343,154.7C365.7,128,389,64,411,80C434.3,96,457,192,480,202.7C502.9,213,526,139,549,122.7C571.4,107,594,149,617,160C640,171,663,149,686,154.7C708.6,160,731,192,754,192C777.1,192,800,160,823,154.7C845.7,149,869,171,891,154.7C914.3,139,937,85,960,85.3C982.9,85,1006,139,1029,176C1051.4,213,1074,235,1097,229.3C1120,224,1143,192,1166,186.7C1188.6,181,1211,203,1234,208C1257.1,213,1280,203,1303,218.7C1325.7,235,1349,277,1371,256C1394.3,235,1417,149,1429,106.7L1440,64L1440,320L1428.6,320C1417.1,320,1394,320,1371,320C1348.6,320,1326,320,1303,320C1280,320,1257,320,1234,320C1211.4,320,1189,320,1166,320C1142.9,320,1120,320,1097,320C1074.3,320,1051,320,1029,320C1005.7,320,983,320,960,320C937.1,320,914,320,891,320C868.6,320,846,320,823,320C800,320,777,320,754,320C731.4,320,709,320,686,320C662.9,320,640,320,617,320C594.3,320,571,320,549,320C525.7,320,503,320,480,320C457.1,320,434,320,411,320C388.6,320,366,320,343,320C320,320,297,320,274,320C251.4,320,229,320,206,320C182.9,320,160,320,137,320C114.3,320,91,320,69,320C45.7,320,23,320,11,320L0,320Z"></path></svg>